<!--?xml version="1.0" standalone="no"?-->
              <svg id="sw-js-blob-svg" viewBox="0 0 1000 600" xmlns="http://www.w3.org/2000/svg" version="1.1">
                    <defs> 
                        <linearGradient id="sw-gradient" x1="0" x2="1" y1="1" y2="0">
                            <stop id="stop1" stop-color="rgba(252, 158, 91, 1)" offset="0%"></stop>
                            <stop id="stop2" stop-color="rgba(246, 255, 76, 1)" offset="100%"></stop>
                        </linearGradient>
                    </defs>
                <path fill="url(#sw-gradient)" d="M13.9,-19.4C20.9,-20.1,31.4,-22.1,36.3,-19.1C41.2,-16.1,40.5,-8,39.2,-0.7C37.9,6.6,36,13.1,32.5,18.5C29,24,23.9,28.3,18.2,28.5C12.5,28.7,6.3,24.9,-0.7,26.1C-7.7,27.4,-15.4,33.7,-21.8,33.9C-28.2,34.1,-33.2,28.1,-33,21.4C-32.8,14.7,-27.3,7.4,-24.8,1.4C-22.3,-4.5,-22.9,-9,-22.1,-14C-21.4,-18.9,-19.2,-24.3,-15.3,-25.3C-11.4,-26.3,-5.7,-22.9,-1.1,-21C3.5,-19.1,7,-18.6,13.9,-19.4Z" width="100%" height="100%" transform="translate(50 50)" stroke-width="0" style="transition: all 0.3s ease 0s;" stroke="url(#sw-gradient)"></path>
              </svg>