<?xml version="1.0" encoding="utf-8"?>
<!-- Generator: Adobe Illustrator 26.2.1, SVG Export Plug-In . SVG Version: 6.00 Build 0)  -->
<svg version="1.1" id="레이어_1" xmlns="http://www.w3.org/2000/svg" xmlns:xlink="http://www.w3.org/1999/xlink" x="0px"
	 y="0px" viewBox="0 0 1366 3000" style="enable-background:new 0 0 1366 3000;" xml:space="preserve">
<style type="text/css">
	
	.st0{
		fill:#fffff0;stroke:none;stroke-width:5;stroke-miterlimit:10;}
</style>
<path class="st0" d="M367.5-61.5c-187.49,134.91-450.89,340.43-414,414c42.71,85.18,487.38-7.62,487-68
	c-0.2-31.54-121.99-77.98-200-37c-102.89,54.05-138.55,264.88-64,346c161.79,176.06,928.83-165.07,905-314
	c-17.2-107.48-458.03-188.15-546-55c-94.93,143.68,204.57,561.27,350,528c63.52-14.53,109.29-117.75,91-137
	c-25.59-26.92-229.08,55.19-264,200c-43.38,179.85,192.75,375.6,364,350c84.16-12.58,165.48-80.56,155-113
	c-20.21-62.54-388.04-13.21-678,86c-177.13,60.61-509.07,174.18-504,300c9.29,230.45,1147.02,449.88,1191,332
	c24.17-64.79-259.72-291.33-537-259c-194.74,22.71-396.91,174.35-381,291c13.84,101.47,190.02,157.01,209,163
	c203.49,64.16,364.1-40.64,413,28c39.32,55.2-49.07,144.71-13,191c59.82,76.77,399.34-45.7,391-96
	c-12.6-76.05-847.22-149.19-1055,200c-84.12,141.37-58.8,340.72,36,459c220.74,275.4,815.35,107.66,837-27
	c13.83-86.01-193.79-234.96-350-191c-113.09,31.83-184.95,160.74-164,186c38.53,46.46,348.49-309.21,637-231
	c248.72,67.42,432.76,444.09,331,577c-94.46,123.38-420.92,17.99-463,4"/>
</svg>
