<svg class="mysvg" xmlns="http://www.w3.org/2000/svg"
	stroke="url(#svg_gradient)"
 	xmlns:xlink="http://www.w3.org/1999/xlink"
			viewBox="0 0 1440 3630.71">
			<defs>
				<linearGradient id="svg_gradient" x1="-471.22" y1="3333.25" x2="1966.35" y2="895.68"
					gradientTransform="matrix(1, 0, 0, 1, 0, 0)" gradientUnits="userSpaceOnUse">
					<stop class="stop1" offset="0%" />
					<stop class="stop2" offset="40%" />
					<stop class="stop3" offset="70%" />
					<stop class="stop4" offset="100%" />
				</linearGradient>
			</defs>
			<path class="st0" d="M1012.976-0.231
	c-16.397,82.856-132.814,95.372-226.365,109.966c-90.465,14.113-164.468-14.945-232.032,55.228
	c-98.626,102.436,109.948,329.686,187.516,327.313c50.477-1.544,69.769-53.348,55.508-103.401
	c-23.202-81.435-326.412-117.879-345.582-22.366c-25.927,129.184,243.412-102.392,569.424-98.874
	c303.464,3.274,317.273,395.536,328.882,293.969c6.811-59.587-158.002-64.969-253.363-32.06
	c-100.389,34.644-238.278,194.105-188.538,318.244c41.766,104.237,170.79,129.241,240.923,81.136
	c46.717-32.044,66.229-72.413,44.23-96.393c-43.462-47.377-212.962-20.994-297.333,100.505
	c-27.548,39.67-56.202,133.829-10.665,146.637c52.745,14.834,86.67-7.186,97.119-34.352
	c49.33-128.243-262.501-175.476-278.931,24.859c-6.798,82.883,3.919,154.458-52.024,221.2
	c-60.865,72.615-238.255,3.633-319.329-106.335c-70.066-95.035-66.054-247.567,18.38-309.607
	c78.287-57.523,221.033,42.388,256.938,148.863c24.815,73.589,2.863,179.276-50.486,204.269
	c-67.147,31.458-174.057-69.591-163.721-101.232c14.099-43.163,273.96-41.617,367.185,106.667
	c34.769,55.304,30.172,105.27,91.372,185.028c24.955,32.522,60.205,78.461,114.986,100.82
	c107.309,43.797,265.248-12.808,281.412-100.947c16.566-90.333-114.086-223.072-201.738-200.078
	c-117.452,30.812-138.226,336.143-101.888,457.657c5.832,19.5,18.33,59.454,49.255,72.756c25.274,10.871,50.495-1.377,85.997-19.297
	c164.616-83.091,169.623-86.592,168.965-93.091c-3.133-30.924-129.458-79.468-199.945-5.115
	c-45.165,47.642-60.443,138.4-21.527,197.864c25.052,38.28,71.127,61.398,115.023,51.621c50.69-11.29,90.391-64.642,83.421-78.774
	c-9.493-19.245-110.968,23.266-293.725,99.828c-131.061,54.906-193.951,87.74-221.568,57.183
	c-22.795-25.221-25.33-83.688-1.66-108.596c55.967-58.893,253.951,75.161,363.723,222.83c52.209,70.233,62.285,113.712,54.6,150.559
	c-12.439,59.642-68.607,88.455-76.681,92.44c-74.575,36.806-166.137-6.143-165.051-28.052c1.007-20.314,83.1-51.485,150.136-22.505
	c84.428,36.499,102.967,150.252,104.888,163.162c3.007,20.212,15.09,101.417-21.4,147.669c-75.001,95.067-312.7-11.4-436.29-87.844
	c-101.671-62.886-353.537-218.671-339.934-445.591c6.071-101.268,65.118-218.479,115.349-215.445
	c112.651,6.803,231.738,621.438,77.568,737.044c-84.455,63.33-256.181-19.144-254.865-64.329
	c1.059-36.358,115.4-91.286,205.737-58.622c97.396,35.216,171.466,173.901,209.979,246.012
	c22.367,41.879,29.937,63.819,56.356,82.438c77.691,54.756,211.879,5.743,216.421-39.577
	c5.874-58.611-157.474-152.394-189.81-116.656c-29.547,32.656,40.643,186.494,133.787,284.274
	c65.7,68.97,172.946,158.012,204.736,128.053c27.983-26.371,3.134-149.908-62.323-192.43
	c-97.108-63.083-302.744,39.697-343.981,213.748c-33.849,142.867,55.062,283.139,139.971,343.075
	c30.452,21.496,57.676,30.743,70.465,34.519c127.667,37.694,282.038-37.2,284.93-100.627
	c2.455-53.856-102.692-134.728-197.635-118.371c-141.806,24.43-140.146,244.964-323.747,352.147
	c-148.16,86.493-352.163,61.344-382.521-25.723c-28.687-82.272,73.965-234.482,107.976-222.14
	c40.517,14.703,47.43,289.186-79.306,433.602c-130.393,148.584-397.666,154.249-604.519-41.879" />
		</svg>