<?xml version="1.0" encoding="iso-8859-1"?>
<!-- Generator: Adobe Illustrator 19.0.0, SVG Export Plug-In . SVG Version: 6.00 Build 0)  -->
<svg version="1.1" id="Layer_1" xmlns="http://www.w3.org/2000/svg" xmlns:xlink="http://www.w3.org/1999/xlink" x="0px" y="0px"
	 viewBox="0 0 511.989 511.989" style="enable-background:new 0 0 511.989 511.989;" xml:space="preserve">
<rect x="408.399" y="26.854" transform="matrix(-0.7071 0.7071 -0.7071 -0.7071 819.7593 -231.0359)" style="fill:#9EC8E8;" width="98.659" height="54.811"/>
<polygon style="fill:#082947;" points="430.604,174.402 186.029,418.976 124.017,372.468 376.343,120.141 "/>
<polygon style="fill:#274B6D;" points="384.094,127.892 131.769,380.219 93.012,325.958 337.586,81.384 "/>
<polygon style="fill:#4284B2;" points="477.112,127.892 430.604,174.402 376.343,120.141 430.604,81.384 "/>
<rect x="20.377" y="439.543" transform="matrix(-0.7071 -0.7071 0.7071 -0.7071 -273.1405 837.2019)" style="fill:#082947;" width="32.886" height="71.254"/>
<polygon style="fill:#4284B2;" points="186.029,418.976 69.757,488.74 46.502,465.484 77.509,403.473 139.52,372.468 "/>
<g>
	<polygon style="fill:#6DA8D6;" points="139.52,372.468 46.502,465.484 23.248,442.23 93.012,325.958 	"/>
	
		<rect x="351.209" y="48.511" transform="matrix(-0.7071 0.7071 -0.7071 -0.7071 713.2485 -132.6418)" style="fill:#6DA8D6;" width="65.773" height="65.773"/>
</g>
<polygon style="fill:#9EC8E8;" points="178.681,193.781 155.426,170.527 302.704,23.249 442.229,162.774 418.975,186.028 
	302.704,69.757 "/>
<g>
</g>
<g>
</g>
<g>
</g>
<g>
</g>
<g>
</g>
<g>
</g>
<g>
</g>
<g>
</g>
<g>
</g>
<g>
</g>
<g>
</g>
<g>
</g>
<g>
</g>
<g>
</g>
<g>
</g>
</svg>
